{
    "asset" : {
        "generator" : "Khronos glTF Blender I/O v1.7.33",
        "version" : "2.0"
    },
    "scene" : 0,
    "scenes" : [
        {
            "name" : "Scene",
            "nodes" : [
                0,
                1,
                2,
                3,
                4
            ]
        }
    ],
    "nodes" : [
        {
            "name" : "static_box",
            "scale" : [
                0.15599322319030762,
                0.430106520652771,
                0.15599322319030762
            ]
        },
        {
            "name" : "bounding_sphere",
            "scale" : [
                0.48557111620903015,
                0.48557111620903015,
                0.48557111620903015
            ],
            "translation" : [
                0,
                0.04552549868822098,
                0
            ]
        },
        {
            "name" : "dynamic_box",
            "scale" : [
                0.17724581062793732,
                0.12954331934452057,
                0.17724581062793732
            ],
            "translation" : [
                0,
                0.014422808773815632,
                0
            ]
        },
        {
            "name" : "placeAttach_box",
            "scale" : [
                0.15599322319030762,
                0.430106520652771,
                0.15599322319030762
            ],
            "translation" : [
                0,
                -0.16707448661327362,
                0
            ]
        },
        {
            "mesh" : 0,
            "name" : "Sphere"
        }
    ],
    "materials" : [
        {
            "doubleSided" : true,
            "name" : "clay",
            "pbrMetallicRoughness" : {
                "baseColorFactor" : [
                    0.800000011920929,
                    0.800000011920929,
                    0.800000011920929,
                    1
                ],
                "metallicFactor" : 0,
                "roughnessFactor" : 0.5
            }
        }
    ],
    "meshes" : [
        {
            "name" : "Sphere.001",
            "primitives" : [
                {
                    "attributes" : {
                        "POSITION" : 0,
                        "NORMAL" : 1,
                        "TEXCOORD_0" : 2
                    },
                    "indices" : 3,
                    "material" : 0
                }
            ]
        }
    ],
    "accessors" : [
        {
            "bufferView" : 0,
            "componentType" : 5126,
            "count" : 238,
            "max" : [
                0.23714493215084076,
                0.23714490234851837,
                0.23714490234851837
            ],
            "min" : [
                -0.2371448576450348,
                -0.23714490234851837,
                -0.23714490234851837
            ],
            "type" : "VEC3"
        },
        {
            "bufferView" : 1,
            "componentType" : 5126,
            "count" : 238,
            "type" : "VEC3"
        },
        {
            "bufferView" : 2,
            "componentType" : 5126,
            "count" : 238,
            "type" : "VEC2"
        },
        {
            "bufferView" : 3,
            "componentType" : 5123,
            "count" : 240,
            "type" : "SCALAR"
        }
    ],
    "bufferViews" : [
        {
            "buffer" : 0,
            "byteLength" : 2856,
            "byteOffset" : 0
        },
        {
            "buffer" : 0,
            "byteLength" : 2856,
            "byteOffset" : 2856
        },
        {
            "buffer" : 0,
            "byteLength" : 1904,
            "byteOffset" : 5712
        },
        {
            "buffer" : 0,
            "byteLength" : 480,
            "byteOffset" : 7616
        }
    ],
    "buffers" : [
        {
            "byteLength" : 8096,
            "uri" : "data:application/octet-stream;base64,"
        }
    ]
}
